<svg xmlns="http://www.w3.org/2000/svg" viewBox="0 0 47.5 47.5" id="angel"><defs><clipPath id="a"><path d="M0 38h38V0H0v38Z"></path></clipPath></defs><g clip-path="url(#a)" transform="matrix(1.25 0 0 -1.25 0 47.5)"><path fill="#ffcc4d" d="M36 19c0-9.389-7.611-17-17-17C9.612 2 2 9.611 2 19c0 9.388 7.612 17 17 17 9.389 0 17-7.612 17-17"></path><path fill="#664500" d="M28.335 14.371a.501.501 0 0 1-.635.029c-.039-.029-3.922-2.9-8.7-2.9-4.766 0-8.662 2.871-8.7 2.9a.5.5 0 0 1-.729-.657C9.7 13.528 12.788 8.5 19 8.5s9.301 5.028 9.429 5.243a.499.499 0 0 1-.094.628"></path><path fill="#5dadec" d="M19 30c-6.627 0-12 .567-12 2.5S12.373 35 19 35s12-.567 12-2.5S25.627 30 19 30m0 7c-8.836 0-16-1.686-16-5 0-3.313 7.164-5 16-5s16 1.687 16 5c0 3.314-7.164 5-16 5"></path><path fill="#ffcc4d" d="M11.375 30.938c-3.397 1.324-2.5 1.991-.062 3.23A16.929 16.929 0 0 0 19 36c2.893 0 5.616-.722 8.001-1.997.695-.372 1.432-.885 2.124-1.346"></path><path fill="#664500" d="M27 18a.999.999 0 0 0-.948.684C25.849 19.283 25.033 21 24 21c-1.062 0-1.889-1.827-2.052-2.316a.996.996 0 0 0-1.264-.632.998.998 0 0 0-.632 1.264C20.177 19.693 21.355 23 24 23s3.823-3.307 3.948-3.684A.998.998 0 0 0 27 18M17 18c-.419 0-.809.265-.949.684C15.848 19.283 15.034 21 14 21c-1.062 0-1.888-1.827-2.051-2.316a.998.998 0 0 0-1.265-.632.999.999 0 0 0-.633 1.264C10.177 19.693 11.355 23 14 23c2.645 0 3.823-3.307 3.949-3.684A.999.999 0 0 0 17 18"></path></g></svg>