<svg xmlns="http://www.w3.org/2000/svg" viewBox="0 0 64 64" id="award"><path fill="#2b2e63" d="M32 6.7c-7.7 0-14.1 6.3-14.1 14.1S24.2 34.9 32 34.9c7.7 0 14.1-6.3 14.1-14.1S39.7 6.7 32 6.7zm0 26.2c-6.7 0-12.1-5.4-12.1-12.1 0-6.7 5.4-12.1 12.1-12.1 6.7 0 12.1 5.4 12.1 12.1 0 6.6-5.4 12.1-12.1 12.1z"></path><path fill="#2b2e63" d="M51.8 16.8c-.5-.7-1.1-1.4-1.3-2-.2-.7-.2-1.6-.2-2.5 0-1.5 0-3-.8-4.2-.9-1.2-2.4-1.7-3.7-2.1-.9-.3-1.7-.5-2.3-1-.6-.4-1.1-1.1-1.6-1.9-.8-1.2-1.7-2.5-3.2-2.9-1.4-.4-2.8 0-4.2.5-.9.3-1.7.6-2.5.6S30.4 1 29.5.7c-1.4-.5-2.8-.9-4.2-.5-1.5.5-2.4 1.8-3.2 2.9-.5.7-1 1.5-1.6 1.8-.6.4-1.4.7-2.3 1-1.4.4-2.9.9-3.7 2.1-.9 1.2-.9 2.7-.9 4.2 0 .9 0 1.8-.2 2.5-.2.6-.7 1.3-1.3 2-.8 1.1-1.8 2.4-1.8 4s1 2.8 1.8 4c.5.7 1.1 1.4 1.3 2 .2.7.2 1.6.2 2.5 0 1.5 0 3 .9 4.2.9 1.2 2.4 1.7 3.7 2.1.9.3 1.7.5 2.3 1 .3.3.7.6 1 1.1V63c0 .4.2.8.6.9.1 0 .2.1.4.1.3 0 .5-.1.7-.3l8.8-9.8 8.8 9.8c.3.3.7.4 1.1.3.4-.1.6-.5.6-.9V37.6c.3-.4.7-.8 1-1.1.6-.4 1.4-.7 2.3-1 1.4-.4 2.8-.9 3.7-2.1.9-1.2.9-2.7.8-4.2 0-.9 0-1.8.2-2.5.2-.6.7-1.3 1.3-2 .8-1.1 1.8-2.4 1.8-4 0-1.5-.9-2.8-1.8-3.9zM31 52.1l-7.6 8.4V40.1c.5.5 1.1 1 1.8 1.2.4.1.8.2 1.2.2 1 0 2-.3 3-.7.5-.2 1-.3 1.5-.5v11.8zm9.5 8.4L33 52.1V40.4c.5.1 1 .3 1.5.5 1.4.5 2.8.9 4.2.5.7-.2 1.3-.7 1.9-1.2v20.3zm9.8-36.9c-.6.8-1.2 1.7-1.5 2.6-.3 1-.3 2.1-.3 3.1 0 1.2 0 2.3-.5 3-.5.7-1.6 1-2.7 1.4-1 .3-2 .6-2.8 1.2-.8.6-1.4 1.5-2 2.3-.7 1-1.4 1.9-2.2 2.2-.8.3-1.9-.1-3-.5-1-.3-2-.7-3.1-.7s-2.1.3-3.1.7c-1.1.4-2.2.7-3 .5-.8-.3-1.5-1.2-2.2-2.2-.6-.8-1.2-1.7-2-2.3-.8-.6-1.9-.9-2.8-1.2-1.1-.4-2.2-.7-2.7-1.4s-.5-1.8-.5-3c0-1 0-2.1-.3-3.1-.3-.9-.9-1.8-1.5-2.6-.7-1-1.4-1.9-1.4-2.8 0-.9.7-1.8 1.4-2.8.6-.8 1.2-1.7 1.5-2.6.3-1 .3-2.1.3-3.1 0-1.2 0-2.3.5-3 .5-.7 1.6-1 2.7-1.4 1-.3 2-.6 2.8-1.2.8-.6 1.4-1.5 2-2.3.7-1 1.4-1.9 2.2-2.2.2-.1.4-.1.6-.1.7 0 1.5.3 2.4.6 1 .3 2 .7 3.1.7s2.1-.4 3.1-.7c1.1-.4 2.2-.7 3-.5.8.3 1.5 1.2 2.2 2.2.6.8 1.2 1.7 2 2.3.8.6 1.8.9 2.8 1.2 1.2.4 2.2.7 2.7 1.4s.5 1.8.5 3c0 1.1 0 2.1.3 3.1.3.9.9 1.8 1.5 2.6.7 1 1.4 1.9 1.4 2.8 0 .9-.7 1.8-1.4 2.8z"></path><path fill="#ecc25d" d="M50.3 17.9c-.6-.8-1.2-1.7-1.5-2.6-.3-1-.3-2.1-.3-3.1 0-1.2 0-2.3-.5-3-.5-.7-1.6-1-2.7-1.4-1-.3-2-.6-2.8-1.2-.8-.6-1.4-1.5-2-2.3-.7-1-1.4-1.9-2.2-2.2-.8-.3-1.9.1-3 .5-1 .3-2 .7-3.1.7s-2.1-.4-3.1-.7c-.9-.3-1.7-.6-2.4-.6-.2 0-.4 0-.6.1-.8.3-1.5 1.2-2.2 2.2-.6.8-1.2 1.7-2 2.3-.8.6-1.9.9-2.8 1.2-1.1.4-2.2.7-2.7 1.4s-.5 1.8-.5 3c0 1.1 0 2.1-.3 3.1-.3.9-.9 1.8-1.5 2.6-.7 1-1.4 1.9-1.4 2.8 0 .9.7 1.8 1.4 2.8.6.8 1.2 1.7 1.5 2.6.3 1 .3 2.1.3 3.1 0 1.2 0 2.3.5 3 .5.7 1.6 1 2.7 1.4 1 .3 2 .6 2.8 1.2.8.6 1.4 1.5 2 2.3.7 1 1.4 1.9 2.2 2.2.8.3 1.9-.1 3-.5 1-.3 2-.7 3.1-.7s2.1.3 3.1.7c1.1.4 2.2.7 3 .5.8-.3 1.5-1.2 2.2-2.2.6-.8 1.2-1.7 2-2.3.8-.6 1.8-.9 2.8-1.2 1.2-.4 2.2-.7 2.7-1.4s.5-1.8.5-3c0-1 0-2.1.3-3.1.3-.9.9-1.8 1.5-2.6.7-1 1.4-1.9 1.4-2.8 0-.9-.7-1.8-1.4-2.8zM32 34.8c-7.7 0-14.1-6.3-14.1-14.1 0-7.7 6.4-14 14.1-14 7.7 0 14.1 6.3 14.1 14.1 0 7.7-6.4 14-14.1 14z"></path><path fill="#ffdc7c" d="M32 8.6c-6.7 0-12.1 5.4-12.1 12.1 0 6.7 5.4 12.1 12.1 12.1 6.7 0 12.1-5.4 12.1-12.1 0-6.6-5.4-12.1-12.1-12.1zm7.5 11.3-3 2.9.7 4.2c.1.4-.1.7-.4.9-.2.1-.4.2-.6.2-.2 0-.3 0-.5-.1L32 26l-3.7 2c-.3.2-.7.1-1-.1-.3-.2-.4-.6-.4-.9l.7-4.2-3-2.9c-.3-.3-.4-.6-.2-1 .1-.4.4-.6.8-.7l4.2-.6 1.9-3.8c.3-.7 1.4-.7 1.7 0l1.9 3.8 4.2.6c.4.1.7.3.8.7-.1.4-.2.8-.4 1z"></path><path fill="#f26e61" d="M31 40.4v11.7l-7.6 8.4V40.1c.5.5 1.1 1 1.8 1.2.4.1.8.2 1.2.2 1 0 2-.3 3-.7.6-.1 1.1-.3 1.6-.4zm9.5-.3v20.4L33 52.1V40.4c.5.1 1 .3 1.5.5 1.4.5 2.8.9 4.2.5.7-.3 1.3-.8 1.8-1.3z"></path><path fill="#e3b348" d="M50.3 17.9c-.6-.8-1.2-1.7-1.5-2.6-.3-1-.3-2.1-.3-3.1 0-1.2 0-2.3-.5-3-.5-.7-1.6-1-2.7-1.4-1-.3-2-.6-2.8-1.2-.8-.6-1.4-1.5-2-2.3-.7-1-1.4-1.9-2.2-2.2-.8-.3-1.9.1-3 .5-1 .3-2 .7-3.1.7s-2.1-.4-3.1-.7c-.9-.3-1.7-.6-2.4-.6-.2 0-.4 0-.6.1-.8.3-1.5 1.2-2.2 2.2-.6.8-1.2 1.7-2 2.3-.8.6-1.9.9-2.8 1.2-1.1.4-2.2.7-2.7 1.4s-.5 1.8-.5 3c0 1.1 0 2.1-.3 3.1-.3.9-.9 1.8-1.5 2.6-.7 1-1.4 1.9-1.4 2.8 0 .9.7 1.8 1.4 2.8.6.8 1.2 1.7 1.5 2.6.3 1 .3 2.1.3 3.1 0 1.2 0 2.3.5 3 .5.7 1.6 1 2.7 1.4 1 .3 2 .6 2.8 1.2.8.6 1.4 1.5 2 2.3.7 1 1.4 1.9 2.2 2.2.8.3 1.9-.1 3-.5 1-.3 2-.7 3.1-.7s2.1.3 3.1.7c1.1.4 2.2.7 3 .5.8-.3 1.5-1.2 2.2-2.2.6-.8 1.2-1.7 2-2.3.8-.6 1.8-.9 2.8-1.2 1.2-.4 2.2-.7 2.7-1.4s.5-1.8.5-3c0-1 0-2.1.3-3.1.3-.9.9-1.8 1.5-2.6.7-1 1.4-1.9 1.4-2.8 0-.9-.7-1.8-1.4-2.8zm-1.2 4.8c-.7.9-1.4 1.9-1.8 3.1-.4 1.2-.4 2.5-.4 3.6 0 .7 0 1.8-.2 2.1-.2.3-1.2.6-2 .8-1.2.4-2.3.8-3.3 1.5-1 .8-1.8 1.8-2.4 2.7-.5.7-1.1 1.5-1.4 1.6h-.1c-.5 0-1.3-.3-1.9-.5-1-.3-2.2-.8-3.6-.8-1.3 0-2.6.4-3.6.8-.7.2-1.4.5-1.9.5h-.1c-.4-.1-1-1-1.4-1.6-.7-.9-1.4-1.9-2.4-2.6-1.1-.8-2.3-1.2-3.3-1.5-.8-.2-1.8-.6-2-.8-.2-.3-.2-1.4-.2-2.1 0-1.1 0-2.4-.4-3.6-.4-1.2-1.2-2.2-1.8-3-.5-.7-1.1-1.5-1.1-1.9 0-.4.6-1.3 1.1-1.9.7-.9 1.4-1.9 1.8-3 .4-1.2.4-2.5.4-3.6 0-.7 0-1.8.2-2.1.2-.3 1.3-.7 2-.9 1.1-.3 2.3-.7 3.3-1.5 1-.7 1.7-1.7 2.3-2.6.5-.7 1.1-1.6 1.5-1.7h.1c.4 0 1.2.3 1.9.5h.1c1 .3 2.2.7 3.5.7s2.4-.4 3.5-.7h.1c.7-.2 1.4-.5 1.9-.5h.1c.4.1 1 1 1.4 1.6.6.9 1.4 1.9 2.4 2.7 1 .7 2.2 1.1 3.3 1.4.7.2 1.8.6 2 .9.2.3.2 1.4.2 2.1 0 1.1 0 2.4.4 3.6.4 1.2 1.1 2.2 1.8 3 .5.7 1.1 1.5 1.1 1.9 0 .3-.7 1.2-1.1 1.8z"></path><path fill="#ecc25d" d="M32 8.6c-6.7 0-12.1 5.4-12.1 12.1 0 6.7 5.4 12.1 12.1 12.1 6.7 0 12.1-5.4 12.1-12.1 0-6.6-5.4-12.1-12.1-12.1zm0 22.8c-5.9 0-10.6-4.8-10.6-10.6 0-5.9 4.8-10.6 10.6-10.6 5.9 0 10.6 4.8 10.6 10.6S37.9 31.4 32 31.4z"></path><path fill="#e15e5a" d="M25 41.2v17.6l-1.5 1.7V40.1c.4.5.9.8 1.5 1.1zm15.5-1.1v20.4L39 58.8V41.2c.6-.3 1.1-.6 1.5-1.1z"></path><path fill="#2b2e63" d="M39.7 18.9c-.1-.4-.4-.6-.8-.7l-4.2-.6-1.9-3.8c-.3-.7-1.4-.7-1.7 0l-1.9 3.8-4.2.6c-.4.1-.7.3-.8.7-.1.4 0 .7.2 1l3 2.9-.5 4.2c-.1.4.1.7.4.9.3.2.7.3 1 .1l3.7-2 3.7 2c.1.1.3.1.5.1s.4-.1.6-.2c.3-.2.5-.6.4-.9l-.7-4.2 3-2.9c.2-.2.3-.6.2-1zm-5 2.9c-.2.2-.3.5-.3.9l.5 2.7-2.5-1.3c-.1 0-.2-.1-.4-.1s-.3 0-.5.1L29 25.4l.5-2.7c.1-.3 0-.6-.3-.9l-2-1.9 2.7-.4c.3 0 .6-.3.7-.5l1.2-2.5L33 19c.1.3.4.5.7.5l2.7.4-1.7 1.9z"></path><path fill="#ededed" d="m34.4 22.7.5 2.7-2.5-1.3c-.1 0-.2-.1-.4-.1s-.3 0-.5.1L29 25.4l.5-2.7c.1-.3 0-.6-.3-.9l-2-1.9 2.7-.4c.3 0 .6-.3.7-.5l1.2-2.5L33 19c.1.3.4.5.7.5l2.7.4-2 1.9c.1.3 0 .6 0 .9z"></path><path fill="#d6d6d6" d="m34.7 21.8 2-1.9-2.7-.4c-.3 0-.6-.3-.7-.5L32 16.5 30.8 19c-.1.3-.4.5-.7.5l-2.7.4 2 1.9c.2.2.3.5.3.9l-.5 2.7 2.5-1.3c.1-.1.3-.1.5-.1s.3 0 .5.1l2.5 1.3-.5-2.7c-.3-.3-.2-.6 0-.9zm-1.2 1.1.1.7-.7-.3c-.3-.2-.6-.3-.9-.3-.3 0-.6.1-.9.2l-.7.4.1-.7c.1-.6-.1-1.3-.6-1.7l-.5-.5.7-.1c.6-.1 1.2-.5 1.5-1.1l.3-.7.3.7c.3.6.8 1 1.5 1.1l.7.1-.4.4c-.5.5-.7 1.2-.5 1.8z"></path></svg>