<svg xmlns="http://www.w3.org/2000/svg" xmlns:xlink="http://www.w3.org/1999/xlink" data-name="Layer 1" viewBox="0 0 475.74 376.77" id="bike-riding"><defs><linearGradient id="b" x1="311.74" x2="405.8" y1="200.25" y2="200.25" gradientUnits="userSpaceOnUse"><stop offset="0" stop-color="#ecc4d7"></stop><stop offset=".42" stop-color="#efd4d1"></stop><stop offset="1" stop-color="#f2eac9"></stop></linearGradient><linearGradient id="a" x1="374.06" x2="327.51" y1="188.95" y2="217.86" gradientUnits="userSpaceOnUse"><stop offset="0" stop-opacity="0"></stop><stop offset=".88" stop-opacity=".8"></stop><stop offset=".97"></stop></linearGradient><linearGradient id="d" x1="334.05" x2="322.41" y1="99.38" y2="98.44" xlink:href="#a"></linearGradient><linearGradient id="e" x1="248.47" x2="252.98" y1="379.54" y2="469.63" gradientTransform="rotate(1.81 251.022 418.068)" xlink:href="#a"></linearGradient><linearGradient id="f" x1="303.83" x2="280.18" y1="243.13" y2="351.81" xlink:href="#a"></linearGradient><linearGradient id="c" x1="351.08" x2="408.11" y1="319.25" y2="312.18" gradientUnits="userSpaceOnUse"><stop offset="0" stop-color="#fff" stop-opacity="0"></stop><stop offset=".84" stop-color="#fff" stop-opacity=".84"></stop><stop offset=".97" stop-color="#fff"></stop></linearGradient><linearGradient id="g" x1="238.72" x2="292.38" y1="328.25" y2="328.25" gradientTransform="rotate(11.58 269.578 287.108)" xlink:href="#b"></linearGradient><linearGradient id="h" x1="278.67" x2="289.56" y1="234.17" y2="251.82" xlink:href="#a"></linearGradient><linearGradient id="i" x1="372.25" x2="356.83" y1="246.97" y2="247.52" xlink:href="#a"></linearGradient><linearGradient id="j" x1="381.56" x2="366.15" y1="190.9" y2="194.71" xlink:href="#c"></linearGradient><linearGradient id="k" x1="374.25" x2="349.61" y1="192.59" y2="198.68" xlink:href="#c"></linearGradient><linearGradient id="l" x1="214.43" x2="223.25" y1="300.24" y2="301.93" xlink:href="#a"></linearGradient><linearGradient id="m" x1="289.33" x2="292.51" y1="197.71" y2="210.44" xlink:href="#a"></linearGradient><linearGradient id="n" x1="213.26" x2="356.31" y1="250.26" y2="250.26" xlink:href="#a"></linearGradient><linearGradient id="o" x1="127.27" x2="227.05" y1="308.4" y2="323.09" xlink:href="#a"></linearGradient><linearGradient id="p" x1="319.36" x2="367.03" y1="94.78" y2="94.78" xlink:href="#b"></linearGradient><linearGradient id="q" x1="192.01" x2="374.7" y1="220.3" y2="127.32" xlink:href="#a"></linearGradient><linearGradient id="r" x1="293.02" x2="249.66" y1="376.1" y2="373.7" xlink:href="#c"></linearGradient><linearGradient id="s" x1="171.3" x2="230.99" y1="238.2" y2="239.05" xlink:href="#a"></linearGradient><linearGradient id="t" x1="361" x2="431.11" y1="218.45" y2="190.86" gradientUnits="userSpaceOnUse"><stop offset="0" stop-color="#fff" stop-opacity="0"></stop><stop offset=".52" stop-color="#fff" stop-opacity=".84"></stop><stop offset=".97" stop-color="#fff"></stop></linearGradient><linearGradient id="u" x1="336.71" x2="344.22" y1="44.54" y2="85.46" xlink:href="#a"></linearGradient><linearGradient id="v" x1="304.8" x2="404.42" y1="201.66" y2="201.66" xlink:href="#b"></linearGradient><linearGradient id="w" x1="334.9" x2="320.26" y1="111.97" y2="115.72" xlink:href="#a"></linearGradient><linearGradient id="x" x1="316.33" x2="316.05" y1="156.93" y2="183.4" xlink:href="#a"></linearGradient><linearGradient id="y" x1="278.92" x2="340.32" y1="268.34" y2="268.34" gradientTransform="rotate(-21.35 275.672 257.01)" xlink:href="#b"></linearGradient><linearGradient id="z" x1="273.47" x2="275.52" y1="370.44" y2="370.44" xlink:href="#c"></linearGradient><linearGradient id="A" x1="307.22" x2="289.2" y1="306.4" y2="301.14" xlink:href="#c"></linearGradient><linearGradient id="B" x1="285.97" x2="297.23" y1="304.32" y2="307.42" xlink:href="#a"></linearGradient><linearGradient id="C" x1="302.31" x2="300.76" y1="267.68" y2="280.64" xlink:href="#a"></linearGradient><linearGradient id="D" x1="278.39" x2="282.19" y1="332.71" y2="347.63" xlink:href="#a"></linearGradient><linearGradient id="E" x1="290.2" x2="297.42" y1="300.02" y2="300.02" xlink:href="#a"></linearGradient><linearGradient id="F" x1="332.08" x2="326.73" y1="126.12" y2="114.95" xlink:href="#a"></linearGradient></defs><path fill="#68e1fd" d="M214.43 66.97c-16.49 13.86-29.89 31.86-48.97 41.86-10.68 5.59-22.56 8.35-34.17 11.55-39.18 10.8-80 30.21-97.09 67.09-3.84 8.3-6.32 17.22-10.77 25.2-3.62 6.46-8.46 12.16-12.35 18.52a75.23 75.23 0 0 0-9.78 53.14c4.45 23.13 19.92 43.15 39.13 56.77a122.92 122.92 0 0 0 45.86 20c37.52 7.84 76.18-2.19 114.46-4 71-3.44 142.34 21.32 212.41 9.36 19.51-3.33 39.93-10.49 51.23-26.74 7.6-10.94 10.06-24.66 10.7-38a165.32 165.32 0 0 0-28.43-100.34c-7.33-10.72-16.16-21-18.91-33.74-1.61-7.44-1-15.18-1.86-22.74a58.37 58.37 0 0 0-25.92-41.69C383.79 92.75 362.78 90.64 348.25 78c-20.38-17.74-26.75-35.79-56.54-37.94-27.93-2.02-56.08 9.1-77.28 26.91Z" opacity=".12"></path><path fill="url(#b)" d="M311.74 173.39s8.64 18.45 12.77 22.79S389.64 228 389.64 228s2.37 2.9 6.86 1.15 9.3-13.31 9.3-13.31-3.38-4.88-7.5-5.09-1.8-3.42-1.8-3.42l-7.27 3.42s-4.4 2.26-15.94-6.26S338.38 185 338.38 185l-5-14.21Z" transform="translate(-2.92 -52.17)"></path><path fill="url(#a)" d="M311.74 173.39s8.64 18.45 12.77 22.79S389.64 228 389.64 228s2.37 2.9 6.86 1.15 9.3-13.31 9.3-13.31-3.38-4.88-7.5-5.09-1.8-3.42-1.8-3.42l-7.27 3.42s-4.4 2.26-15.94-6.26S338.38 185 338.38 185l-5-14.21Z" transform="translate(-2.92 -52.17)"></path><path fill="#68e1fd" d="m328.08 77.56 3.83 35.47v7.04h-5.83l-8.91-15.82 10.91-26.69z"></path><path fill="url(#d)" d="m328.08 77.56 3.83 35.47v7.04h-5.83l-8.91-15.82 10.91-26.69z"></path><path fill="url(#e)" d="M151.28 400.85c-8.87-.3-17.75-.59-26.61-.11-11.06.61-22 2.42-32.94 4.23l-31.26 5.18c6.69 7.55 17.28 10 27.16 12.08 8.37 1.77 16.84 3.52 25.37 4.12 10 .71 20.14-.2 30.19-.8 38.62-2.29 77.35-.07 116 1.37q90.5 3.39 181.08 1.11c-1.43-4.32-5.88-7-10.35-7.88s-9.07-.2-13.61.12c-16.88 1.2-32.12-2.83-47.59-9.1-12.86-5.21-25.79-3.94-39.58-4.4l-113-3.76Z" transform="translate(-2.92 -52.17)"></path><ellipse cx="291.56" cy="299.5" fill="#68e1fd" rx="23.04" ry="23.29"></ellipse><ellipse cx="291.56" cy="299.5" fill="url(#f)" rx="23.04" ry="23.29"></ellipse><path d="M120.92 367.29a77.88 77.88 0 1 1 77.88-77.88 78 78 0 0 1-77.88 77.88Zm0-146.53a68.66 68.66 0 1 0 68.66 68.65 68.73 68.73 0 0 0-68.66-68.65ZM398.83 373.69a76.9 76.9 0 1 1 76.91-76.86 77 77 0 0 1-76.91 76.86Zm0-143.83a66.93 66.93 0 1 0 66.93 66.97 67 67 0 0 0-66.93-67Z"></path><path fill="#68e1fd" d="M401.16 312.58a3 3 0 0 1-1.59.65c-34.23-12.26-41-99.44-41-99.44l8.41-1.79c0 .22 0 .45.06.67 5.7 72.15 34.43 98.85 34.43 98.85a1.2 1.2 0 0 1-.31 1.06Z"></path><path fill="url(#c)" d="M404.08 364.75C371.27 350.37 364.72 266 364.72 266l5.26-1.12c5.7 72.15 34.43 98.85 34.43 98.85a1.2 1.2 0 0 1-.33 1.02Z" transform="translate(-2.92 -52.17)"></path><path fill="#25233a" d="m203.86 169 32.09 62 19.85-1.54 1.34-62.47s-48.48-39.42-53.28 2.01Z"></path><path fill="url(#g)" d="m258.36 287.76-1.14-6-18.35 1.42 2.86 8.19-1.28 4a48.47 48.47 0 0 0-1.45 23.75l26.76 54 9.6-.63Z" transform="translate(-2.92 -52.17)"></path><path fill="#68e1fd" d="M222.28 197.41h8.49l-17.9 100.95a4.16 4.16 0 0 1-4.11 3.45h-.07a4.19 4.19 0 0 1-4.12-4.91Z"></path><path fill="#68e1fd" d="m222.28 216.14 134.03-33.28v10.05l-134.03 33.93v-10.7zM213.26 281.85l143.05-86.87v12.38l-143.05 85.81v-11.32z"></path><path fill="url(#h)" d="m213.26 281.85 143.05-86.87v12.38l-143.05 85.81v-11.32z"></path><path fill="#68e1fd" d="M371.91 182.24V207a5.81 5.81 0 0 1-4.77 5.72l-4 .73a5.81 5.81 0 0 1-6.86-5.72v-24.77a5.82 5.82 0 0 1 4.77-5.72l.73-.13 3.25-.59a5.81 5.81 0 0 1 6.88 5.72Z"></path><path fill="url(#i)" d="M374.83 232.81v27.47a4.48 4.48 0 0 1-3.68 4.41l-6.64 1.22a4.49 4.49 0 0 1-5.29-4.41V234a4.48 4.48 0 0 1 3.68-4.41l1.82-.34 4.82-.88a4.48 4.48 0 0 1 5.29 4.44Z" transform="translate(-2.92 -52.17)"></path><path fill="url(#j)" d="m377.41 210.72-5.5 1v-36.47l-10.11 1.85v-.1l15.61-2.87"></path><path fill="url(#k)" d="M371.91 175.25v36.47l-10.11 1.85V177.1l10.11-1.85z"></path><path fill="#68e1fd" d="m222.28 216.15-117.44 73s-5.11 13.05 0 12.65 108-3.45 108-3.45l.38-11.25-101.73 9.35s-3.29-2 1.37-5.74 109.42-63.88 109.42-63.88Z"></path><path fill="url(#l)" d="M233.69 249.58 230.61 267l-2 11.17-12.83 72.38a4.16 4.16 0 0 1-4.11 3.45h-.07a4.18 4.18 0 0 1-4.06-3.21 4 4 0 0 1-.06-1.7l1.63-9.14 10.24-57.56 2.09-11.72 3.75-21.07Z" transform="translate(-2.92 -52.17)"></path><path fill="url(#m)" d="M356.3 182.87v10.04l-130.6 33.06 1.99-11.16 128.61-31.94z"></path><path fill="url(#n)" d="m356.31 207.36-143.05 85.81"></path><path fill="url(#o)" d="m114.44 348.63 94.68-8.7-1.63 9.14c-.1.59.52-4.26.66-3.72-24.52.74-95.21 4-99.86 6.32s3-10.09 3-10.09l109.28-65.93-1.2 6.72c-22.1 12.71-99.57 57.3-103.55 60.52-4.67 3.76-1.38 5.74-1.38 5.74Z" transform="translate(-2.92 -52.17)"></path><path fill="#68e1fd" d="m379.57 173.29-5.19 6.42s.11 5.24 3.7 4.94l20.7-27.31s11.8-16.43.87-24a18.78 18.78 0 0 0-8.25-3.15c-14.63-1.95-27.62 9.58-28.22 24.32l-1 23.65 6.68-.39 1.33-26.42c.36-11 19.1-22.78 26.82-11.31 4.39 6.46-9.28 23.79-17.44 33.25Z"></path><path fill="url(#p)" d="M319.36 110.43c4.93-4.43 9.48-9.85 10.58-16.39.46-2.8.31-5.72.67-8.53.67-5.17 1.6-10.85 5.61-14.19a16.48 16.48 0 0 1 6.73-3 22.23 22.23 0 0 1 6.64-.72c7.14.45 13.47 6.23 15 13.21a35.75 35.75 0 0 1 .54 7.53v7.17a12.28 12.28 0 0 0 .61 4.68c.54 1.32 1.56 2.63 1.22 4a5.09 5.09 0 0 1-2.16 2.46 17 17 0 0 0-3.19 3.26c-1.43 1.93-2.48 4.19-4.36 5.68-3.08 2.45-7.47 2.15-11.36 1.57a15.86 15.86 0 0 0-5.09-.22c-3.56.65-6.19 3.76-9.63 4.88a3.76 3.76 0 0 1-1.44.24c-1.36-.09-2.36-1.24-3.21-2.3-2.26-2.85-4.9-6.51-7.16-9.33Z" transform="translate(-2.92 -52.17)"></path><path fill="#68e1fd" d="M326.96 88.59a33.4 33.4 0 0 1-9.79 15.67l-57.87 52.12a40.44 40.44 0 0 1-30.07 10.3c-.34 0-.69 0-1-.09-15.76-1.58-34.34-8.33-29.46-32.09 8.17-39.79 89-73.11 89-73.11 26.25-11.06 36-1.68 39.31 9.94a31.63 31.63 0 0 1-.12 17.26Z"></path><path fill="url(#q)" d="M324.87 133.57 324 143c-1.68 5.93.87 9.12-3.87 13.39l-57.87 52.12a40.44 40.44 0 0 1-30.07 10.3l-12.06-5.34S227 190.83 266 161s58.87-27.43 58.87-27.43Z" transform="translate(-2.92 -52.17)"></path><path fill="#68e1fd" d="M262.4 320.39a1.4 1.4 0 0 0-.73.16 1.16 1.16 0 0 0-.39.55c-.84 2-.08 4.36.74 6.4a2 2 0 0 0 .49.81 1.74 1.74 0 0 0 .82.33c2.1.32 4.1-1 6.23-1.19a22.09 22.09 0 0 0 3.26-.08 5.11 5.11 0 0 0 3.54-4 14.93 14.93 0 0 0-.11-5.57 1.12 1.12 0 0 0-.32-.76 1 1 0 0 0-.56-.15 5 5 0 0 0-2.77.65c-.72.41-1.33 1-2 1.43-2.41 1.43-5.52 1.37-8.2 1.42Z"></path><path fill="url(#r)" d="M265.32 372.56a1.4 1.4 0 0 0-.73.16 1.16 1.16 0 0 0-.39.55c-.84 2-.08 4.36.74 6.4a2 2 0 0 0 .49.81 1.74 1.74 0 0 0 .82.33c2.1.32 4.1-1 6.23-1.19a22.09 22.09 0 0 0 3.26-.08 5.11 5.11 0 0 0 3.54-4 14.93 14.93 0 0 0-.11-5.57 1.12 1.12 0 0 0-.32-.76 1 1 0 0 0-.56-.15 5 5 0 0 0-2.77.65c-.72.41-1.33 1-2 1.43-2.41 1.43-5.52 1.37-8.2 1.42Z" transform="translate(-2.92 -52.17)"></path><path fill="#25233a" d="M265.4 327.58a5.34 5.34 0 0 0-2.07 1.22c-1.28 1.34-1.18 3.43-.91 5.26a62.74 62.74 0 0 0 1.26 6.39c.28 1.1.73 2.36 1.81 2.72a3.58 3.58 0 0 0 1.69 0 196.67 196.67 0 0 0 28.16-7.08 1.68 1.68 0 0 0 .94-.56 1.57 1.57 0 0 0 .12-1.19c-1.2-6.22-7.18-5.81-12.05-6.58-6.27-1-12.83-2.48-18.95-.18Z"></path><path fill="#68e1fd" d="M216.86 175.91s-18.54-3.71-16.8 6.59 3.1 12.42 8.34 14c22.1 6.41 45.43-7.48 45.43-7.48s1.89-13.76-36.97-13.11Z"></path><path fill="url(#s)" d="M219.78 228.08s-18.54-3.71-16.8 6.59 3.1 12.42 8.34 14c22.1 6.41 45.43-7.48 45.43-7.48s1.89-13.76-36.97-13.11Z" transform="translate(-2.92 -52.17)"></path><path fill="#25233a" d="M342.5 38.19c-.59 2.53-.81 5.26-2.3 7.38l-1.83-4.74a1.82 1.82 0 0 0-.65-1 1.41 1.41 0 0 0-1.29.07 4.25 4.25 0 0 0-2.24 3.69 7.67 7.67 0 0 0 1.31 4.28 3.28 3.28 0 0 1 .58 1.26 2 2 0 0 1-1.28 1.9 5.8 5.8 0 0 1-2.42.32l-4.37-.06c-4-.06-8.53-.34-11.16-3.36.6-.88 2-1 2.58-1.82a2.07 2.07 0 0 0 0-2.12 6 6 0 0 0-1.51-1.63l-2.84-2.33c-.74-.62-1.54-1.44-1.34-2.38.38-1.79 3.84-1.7 3.81-3.52 0-.89-.94-1.44-1.71-1.89s-1.59-1.25-1.28-2.08c.36-1 1.8-.85 2.74-1.34 0-1.18-1.82-1.61-2-2.76a1.6 1.6 0 0 1 .9-1.56 4.67 4.67 0 0 1 1.86-.4l4.38-.34a104 104 0 0 1 17.19-.39 9 9 0 0 1 3.29.75 7.52 7.52 0 0 1 2.82 2.71c.89 1.42.52 1.83-.17 3.29a40.06 40.06 0 0 0-3.07 8.07Z"></path><path fill="url(#t)" d="m380.33 232.57-3-.69s.11 5.24 3.7 4.94l20.7-27.31s11.8-16.43.87-24a18.78 18.78 0 0 0-8.25-3.15c-14.63-1.95-27.62 9.58-28.22 24.32l-1 23.65 2.82-1.67 1.8-25.66c.36-11 20.83-25 32.75-13 8.42 8.39-11.81 36.07-22.17 42.57Z" transform="translate(-2.92 -52.17)"></path><path d="M284.08 326.28c-20.84 0-148.23-14.64-173.85-17.61a9.81 9.81 0 0 1-8.74-10.42c.31-3.42 2.58-7.68 11.68-8.53 1.6-.15 159.71-14.83 175.11-16.49 8.14-.87 15.63 1.33 21.08 6.19a24.43 24.43 0 0 1 7.89 18.41c.09 18.67-10.52 28-32.45 28.44Zm-170.76-34.57c-6.21.58-9.53 2.84-9.88 6.72a7.8 7.8 0 0 0 7 8.25c25.93 3 156.18 18 174.34 17.59 20.89-.44 30.58-8.84 30.49-26.43a22.4 22.4 0 0 0-7.27-16.92c-5-4.49-11.95-6.52-19.53-5.7-15.41 1.66-173.52 16.34-175.13 16.49Z" opacity=".42"></path><path fill="#68e1fd" d="M365.02 17.1c0 2.69-.41 5.59-2.49 7.56-1.89 1.79-4.76 2.46-7.49 2.88a67.22 67.22 0 0 1-42.34-7.48c-2.2-1.23-4.58-3.3-3.68-5.46a3.61 3.61 0 0 1 1.25-1.45 12.19 12.19 0 0 1 2.05-1.1c6-2.7 12.06-5.41 18.18-7.95A55.17 55.17 0 0 1 340.99.62c5.8-1.14 14.48-.9 19.44 2.48 3.29 2.24 4.22 7.13 4.48 11.14.08 1.03.1 2.01.11 2.86Z"></path><path fill="url(#u)" d="M367.83 66.41a8.41 8.41 0 0 1-2.38 5.27c-1.89 1.8-4.76 2.47-7.49 2.89a67.23 67.23 0 0 1-42.34-7.49 12.34 12.34 0 0 1-2.43-1.76 12.19 12.19 0 0 1 2.05-1.1c6-2.7 12.06-5.41 18.18-7.95a55.17 55.17 0 0 1 10.49-3.48c5.8-1.14 14.48-.9 19.44 2.48 3.29 2.24 4.22 7.13 4.48 11.14Z" transform="translate(-2.92 -52.17)"></path><path fill="#68e1fd" d="M317.26 64.89a9.82 9.82 0 0 0-6.88 2c-4.66 3.32-7.09 8.95-8.55 14.48a126.14 126.14 0 0 0-2.91 18.27c-.69 6.37-1.38 12.88 0 19.15.43 2 1.21 4.17 3 5.21 2.12 1.25 4.8.47 7.13-.33l14.79-5.12a4.43 4.43 0 0 0 2.75-1.85 4.27 4.27 0 0 0 .07-2.76c-1.65-8-.57-18.37.08-26.48.5-6.81 1.93-21.01-9.48-22.57Z"></path><path fill="url(#v)" d="M304.8 176.2s9.14 18.45 13.52 22.8 69 31.86 69 31.86 2.51 2.9 7.27 1.14 9.84-13.3 9.84-13.3-3.58-4.88-7.94-5.1-1.9-3.42-1.9-3.42l-7.71 3.42s-4.66 2.26-16.88-6.25-37-19.58-37-19.58l-6.29-17Z" transform="translate(-2.92 -52.17)"></path><path fill="#68e1fd" d="m311.37 56.69 9.37-2.75s6.49 11.89 6.07 15.89Z"></path><path fill="url(#w)" d="m314.29 108.86 9.37-2.75s6.49 11.89 6.07 15.89Z" transform="translate(-2.92 -52.17)"></path><path fill="#68e1fd" d="m326.55 116.73-1 6.73-21.16 5.58-4.49-7.12s15.36-2.62 26.65-5.19Z"></path><path fill="url(#x)" d="m329.47 168.9-1 6.73-21.16 5.58-4.49-7.12s15.36-2.62 26.65-5.19Z" transform="translate(-2.92 -52.17)"></path><path fill="#25233a" d="M197.54 160.1s.11 23.19 24.76 27.19 74.08-6.21 74.08-6.21l11.49-22.05-56.07-14.59s-49.96-6-54.26 15.66Z"></path><path fill="url(#y)" d="m310.79 211.2-11.49 22.05s12-2.78 13.26-.39-9.93 7.32-11.22 40.1c-.14 3.62-2.35 18.07-3 21.64l-2 6.46s8.6.91 9 .78 36.19-75.92 23.21-84.53c-3.73-2.51-17.76-6.11-17.76-6.11Z" transform="translate(-2.92 -52.17)"></path><path fill="#68e1fd" d="M287.64 249.15a4.45 4.45 0 0 1 1.66-3.47 3.71 3.71 0 0 1 2.89-.26 20.4 20.4 0 0 1 2.76 1.11 14.93 14.93 0 0 0 6.3 1.14c.94 0 2-.08 2.62.66a2.66 2.66 0 0 1 .07 2.4 30 30 0 0 1-1.95 4.78 1.52 1.52 0 0 1-.45.61 1.69 1.69 0 0 1-.7.22 31.75 31.75 0 0 1-10.87-.25c-4.11-.82-2.61-3.85-2.33-6.94Z"></path><path fill="url(#z)" d="M275.52 369.73c-.72.41-1.33 1-2 1.43" transform="translate(-2.92 -52.17)"></path><path fill="url(#A)" d="M290.56 301.32a4.45 4.45 0 0 1 1.66-3.47 3.71 3.71 0 0 1 2.89-.26 20.4 20.4 0 0 1 2.76 1.11 14.93 14.93 0 0 0 6.3 1.14c.94 0 2-.08 2.62.66a2.66 2.66 0 0 1 .07 2.4 30 30 0 0 1-1.95 4.78 1.52 1.52 0 0 1-.45.61 1.69 1.69 0 0 1-.7.22 31.75 31.75 0 0 1-10.87-.25c-4.11-.82-2.61-3.85-2.33-6.94Z" transform="translate(-2.92 -52.17)"></path><path fill="#25233a" d="M287.93 254.92a29.82 29.82 0 0 1 5.73-.47 10.48 10.48 0 0 1 4.51 1.09c3.3 1.75 5 5.65 8.13 7.61a41.22 41.22 0 0 0 4.56 2 6.24 6.24 0 0 1 3.52 3.35 8 8 0 0 1 .2 3 3 3 0 0 1-.7 2.11 3 3 0 0 1-2 .51c-2.36 0-23.71-3.47-31.7-4.92-.42-.07-4.73.89-3.09-4.37a30.68 30.68 0 0 1 2.3-5.57c1.47-3.07 5.57-3.9 8.54-4.34Z"></path><path fill="#68e1fd" d="m283.21 339.72-4.07-1.26L299.92 272l4.06 1.25-20.77 66.47z"></path><path fill="url(#B)" d="m283.21 339.72-4.07-1.26L299.92 272l4.06 1.25-20.77 66.47z"></path><path fill="#68e1fd" d="m290.03 271.06-1.53 5.13 25.01 3.38.7-4.46-24.18-4.05zM268.39 341.73l.63 5.31 24.3-6.84-1.13-4.38-23.8 5.91z"></path><path fill="url(#C)" d="m290.03 271.06-1.53 5.13 25.01 3.38.7-4.46-24.18-4.05z"></path><path fill="url(#D)" d="m268.39 341.73.63 5.31 24.3-6.84-1.13-4.38-23.8 5.91z"></path><circle cx="293.28" cy="300.02" r="3.61" fill="#68e1fd"></circle><circle cx="293.81" cy="300.02" r="3.61" fill="url(#E)"></circle><path fill="#68e1fd" d="m331.91 114.91-5.51 2.93-.79 5.61 6.3-3.38v-5.16z"></path><path fill="url(#F)" d="m331.91 114.91-5.51 2.93-.79 5.61 6.3-3.38v-5.16z"></path></svg>