<svg xmlns="http://www.w3.org/2000/svg" viewBox="0 0 32 32" id="clock"><circle cx="16" cy="16" r="10" fill="#bee9fe" data-name="Layer 1"></circle><g data-name="Layer 3"><path fill="#231f20" d="M16 27A11 11 0 1 1 27 16 11 11 0 0 1 16 27zM16 7a9 9 0 1 0 9 9A9 9 0 0 0 16 7zM27 9a1 1 0 0 1-.71-.29l-3-3a1 1 0 0 1 1.42-1.42l3 3a1 1 0 0 1 0 1.42A1 1 0 0 1 27 9zM5 9a1 1 0 0 1-.71-.29 1 1 0 0 1 0-1.42l3-3A1 1 0 0 1 8.71 5.71l-3 3A1 1 0 0 1 5 9z"></path><path fill="#231f20" d="M16,7a1,1,0,0,1-1-1V3a1,1,0,0,1,2,0V6A1,1,0,0,1,16,7Z"></path><path fill="#231f20" d="M18 4H14a1 1 0 0 1 0-2h4a1 1 0 0 1 0 2zM19 20a1 1 0 0 1-.71-.29l-3-3A1 1 0 0 1 15 16V9a1 1 0 0 1 2 0v6.59l2.71 2.7a1 1 0 0 1 0 1.42A1 1 0 0 1 19 20z"></path></g></svg>