<svg xmlns="http://www.w3.org/2000/svg" data-name="User Group" viewBox="0 0 24 24"><path fill="none" d="M0 0h24v24H0Z" data-name="Path 3725"></path><path fill="#595bd4" d="M7.547 21A1.547 1.547 0 0 1 6 19.461v-.666a6.934 6.934 0 0 1 3.846-5.207A8.789 8.789 0 0 1 8.1 8.4 5.037 5.037 0 0 1 13.35 3a5.036 5.036 0 0 1 5.25 5.4 8.827 8.827 0 0 1-1.583 4.968c2.751.534 4.583 3.977 4.583 5.427v.666A1.547 1.547 0 0 1 20.053 21Zm3.569-5.9c-1.881.184-3.307 2.986-3.317 3.69v.405h12v-.405c-.009-.7-1.434-3.507-3.316-3.69a21.32 21.32 0 0 0-1.19-.08 3.732 3.732 0 0 1-1.944.576 3.7 3.7 0 0 1-1.863-.527 8.788 8.788 0 0 1-.37.031ZM9.9 8.4c0 2.624 1.773 5.4 3.45 5.4s3.451-2.776 3.451-5.4c0-2.254-1.291-3.6-3.451-3.6S9.9 6.146 9.9 8.4ZM3.947 21A1.548 1.548 0 0 1 2.4 19.461v-.666a6.941 6.941 0 0 1 3.844-5.209A8.791 8.791 0 0 1 4.5 8.4 5.036 5.036 0 0 1 9.75 3a6.3 6.3 0 0 1 .9.069A4.994 4.994 0 0 0 6.3 8.4a8.791 8.791 0 0 0 1.744 5.186A6.941 6.941 0 0 0 4.2 18.795v.666A1.547 1.547 0 0 0 5.747 21Z" data-name="Path 3554" class="color525863 svgShape"></path></svg>