<svg xmlns="http://www.w3.org/2000/svg" viewBox="0 0 47.5 47.5" id="cry"><defs><clipPath id="a"><path d="M0 38h38V0H0v38Z"></path></clipPath></defs><g clip-path="url(#a)" transform="matrix(1.25 0 0 -1.25 0 47.5)"><path fill="#ffcc4d" d="M36 19c0-9.389-7.611-17-17-17C9.612 2 2 9.611 2 19c0 9.388 7.612 17 17 17 9.389 0 17-7.612 17-17"></path><path fill="#664500" d="M15 20.5c0-1.934-1.119-3.5-2.5-3.5S10 18.566 10 20.5c0 1.933 1.119 3.5 2.5 3.5s2.5-1.567 2.5-3.5M28 20.5c0-1.934-1.119-3.5-2.5-3.5S23 18.566 23 20.5c0 1.933 1.119 3.5 2.5 3.5s2.5-1.567 2.5-3.5M6.999 24a1 1 0 0 0-.799 1.6C9.462 29.95 13.816 30 14 30a1 1 0 0 0 .004-2c-.155-.002-3.569-.086-6.204-3.6a1 1 0 0 0-.801-.4M31.001 24a.997.997 0 0 0-.801.4c-2.64 3.521-6.061 3.599-6.206 3.6-.55.006-.994.456-.991 1.005A.997.997 0 0 0 24 30c.184 0 4.537-.05 7.8-4.4a1 1 0 0 0-.799-1.6M24.485 9.121C24.473 9.165 23.339 13.5 19 13.5c-4.341 0-5.475-4.335-5.485-4.379a.495.495 0 0 1 .231-.544.51.51 0 0 1 .596.06c.01.007 1.014.863 4.658.863 3.589 0 4.617-.83 4.656-.863a.5.5 0 0 1 .829.484"></path><path fill="#5dadec" d="M17 5a5 5 0 0 0-5-5 5 5 0 0 0-5 5c0 2.762 4 10 5 10s5-7.238 5-10"></path></g></svg>