<svg xmlns="http://www.w3.org/2000/svg" enable-background="new 0 0 32 32" viewBox="0 0 32 32" id="fire"><path d="M13.84937,0.71991c-0.55762-0.34082-1.27002-0.28027-1.76324,0.14551c-0.49365,0.42676-0.65479,1.12305-0.39893,1.72369c1.75592,4.1153,1.29254,6.07239,0.86041,6.87219c-0.45514,0.84186-1.20123,1.05768-1.50055,1.11139c-0.80225,0.14258-1.42145-1.45416-1.42438-1.46198c-0.19434-0.56055-0.7002-0.9541-1.2915-1.00391C7.7345,8.0658,7.17535,8.36072,6.8902,8.88025C4.24121,13.7085,3.54492,18.2428,4.82031,22.35718c1.87457,6.047,7.33856,8.86548,7.57056,8.98267C12.60474,31.44824,12.83521,31.5,13.0647,31.5c0.36035,0,0.71729-0.12988,0.99805-0.37891c0.46045-0.40924,0.6236-1.05963,0.4126-1.63776c-0.45605-1.24908-1.26953-4.87708,0.41559-6.64374c1.03125-1.08105,1.74463-2.06744,2.23785-2.91705c4.02008,6.31464,1.87598,8.30096,1.8335,8.34491c-0.00781,0.00488-0.01563,0.01074-0.02344,0.01563c-0.67432,0.47174-0.84277,1.39948-0.37695,2.07819c0.46533,0.67877,1.39215,0.85455,2.07379,0.39648c0.00586-0.00391,0.01367-0.00977,0.02295-0.01563c4.87024-3.40729,7.27118-7.36542,7.13495-11.76398C27.49084,9.16736,14.40601,1.06073,13.84937,0.71991z M22.48438,25.12482c-0.36035-2.63483-1.88385-5.74817-4.55188-9.29419c-0.38574-0.5127-1.05524-0.7207-1.66412-0.52344c-0.60986,0.19922-1.02539,0.76367-1.03467,1.40527c0,0.01373-0.20557,1.63678-2.51373,4.05676c-1.56696,1.64264-1.91315,3.8468-1.8316,5.74432c-1.23004-1.19049-2.53815-2.88-3.21198-5.07538c-0.82086-2.67584-0.56793-5.64075,0.74902-8.84003c0.7915,0.70508,1.84479,1.16211,3.14899,0.92773c1.53864-0.27441,2.85504-1.23633,3.61243-2.63776c0.73877-1.36725,0.94141-3.0694,0.60938-5.08801c3.64417,2.8985,8.83716,7.94647,8.99927,13.27472C24.85944,21.18915,24.08453,23.21362,22.48438,25.12482z" fill="#d85b53" class="color000000 svgShape"></path></svg>