<svg xmlns="http://www.w3.org/2000/svg" enable-background="new 0 0 1080 1080" viewBox="0 0 1080 1080" id="jogging"><path fill="#e9f9ff" d="M965.6 978.2C888 864.5 833.9 734.7 807.8 599.6c-3.9-20.1-10.7-44.3-30.6-49.1-13.4-3.2-26.8 4.3-37.9 12.5-44.2 32.7-76.3 81.5-88.9 135-5.4 23.1-11.6 52-34.7 57.8-16.1 4.1-32.2-6.2-43.9-18-31.7-32-46.9-76.4-61-119.2-27.3-82.4-54.6-164.9-81.8-247.3-3.8-11.6-9-24.6-20.4-28.8-9.8-3.7-20.7.6-29.9 5.5-41.8 22.4-73.7 60.3-96.5 101.9-22.9 41.6-37.5 87-52 132.2-41.3 128.5-82.6 256.9-123.9 385.4l859.3 10.7z"></path><path fill="#cef" d="M982.6 673.4c29.6 16.1 49.7 47.4 49.7 83.5 0 52.4-42.5 94.9-94.9 94.9-40.4 0-75-25.3-88.6-60.9l133.8-117.5z"></path><circle cx="835.8" cy="641.2" r="150.3" fill="#b0e1ff"></circle><path fill="#cef" d="M835.8 938.1c-1.9 0-3.4-1.5-3.4-3.4V641.2c0-1.9 1.5-3.4 3.4-3.4s3.4 1.5 3.4 3.4v293.5c0 1.9-1.5 3.4-3.4 3.4z"></path><path fill="#cef" d="M835.8 722.4c-.9 0-1.8-.3-2.4-1l-42.1-42.1c-1.3-1.3-1.3-3.5 0-4.9 1.3-1.3 3.5-1.3 4.9 0l42.1 42.1c1.3 1.3 1.3 3.5 0 4.9-.7.7-1.6 1-2.5 1zM835.8 761.5c-.9 0-1.8-.3-2.4-1l-42.1-42.1c-1.3-1.3-1.3-3.5 0-4.9 1.3-1.3 3.5-1.3 4.9 0l42.1 42.1c1.3 1.3 1.3 3.5 0 4.9-.7.7-1.6 1-2.5 1zM936.8 938.1c-1.7-.3-2.8-1.9-2.8-3.6V780.7c0-1.9 1.4-3.5 3.3-3.6 2-.1 3.6 1.5 3.6 3.4v154.2c-.1 2.1-2 3.7-4.1 3.4z"></path><path fill="#cef" d="M937.4 803c-.9 0-1.8-.3-2.4-1-1.3-1.3-1.3-3.5 0-4.9l30.3-30.3c1.3-1.3 3.5-1.3 4.9 0 1.3 1.3 1.3 3.5 0 4.9L939.8 802c-.7.7-1.5 1-2.4 1zM937.4 831.2c-.9 0-1.8-.3-2.4-1-1.3-1.3-1.3-3.5 0-4.9l30.3-30.3c1.3-1.3 3.5-1.3 4.9 0 1.3 1.3 1.3 3.5 0 4.9l-30.3 30.3c-.8.6-1.6 1-2.5 1z"></path><circle cx="185.4" cy="641.2" r="150.3" fill="#b0e1ff"></circle><path fill="#cef" d="M185.4 938.1c-1.9 0-3.4-1.5-3.4-3.4V641.2c0-1.9 1.5-3.4 3.4-3.4s3.4 1.5 3.4 3.4v293.5c.1 1.9-1.5 3.4-3.4 3.4z"></path><path fill="#cef" d="M185.4 722.4c-.9 0-1.8-.3-2.4-1l-42.1-42.1c-1.3-1.3-1.3-3.5 0-4.9 1.3-1.3 3.5-1.3 4.9 0l42.1 42.1c1.3 1.3 1.3 3.5 0 4.9-.7.7-1.6 1-2.5 1zM185.4 761.5c-.9 0-1.8-.3-2.4-1l-42.1-42.1c-1.3-1.3-1.3-3.5 0-4.9 1.3-1.3 3.5-1.3 4.9 0l42.1 42.1c1.3 1.3 1.3 3.5 0 4.9-.7.7-1.6 1-2.5 1z"></path><path fill="#f2f2f2" d="M1012.6 1002H67.4c-5.8 0-10.5-4.7-10.5-10.5v-48.2c0-5.8 4.7-10.5 10.5-10.5h945.3c5.8 0 10.5 4.7 10.5 10.5v48.2c0 5.8-4.8 10.5-10.6 10.5z"></path><path fill="#2a94f4" d="M709.2 948c9.2 6.9 15.1 12.7 16.5 14.1 1.9 1.8 1 9.9-3.3 15.6-.7 1-1.6 1.9-2.5 2.7-20.1 7.8-53.5-15.1-55.4-16.4-1.9-1.3-30.2-8-33.4-12.2-2.9-3.8 1.5-6 2.6-12 .1-.6.2-1.2.2-1.9.3-7.4 5.8-23.8 10.5-25.2l15.6 4.4 1 .3s8.7-3.4 12.1-4c3.5-.5 16.9 12.5 23.1 22.4 2.5 3.8 7.5 8.2 13 12.2z"></path><path fill="#0b4870" d="M709.2 948c-5.6.4-11.7-1.9-13.6-2.8-2.2-1.1-6.5-9.1-8.8-10.5-2.2-1.5-27.5-7.9-28.3-12.5-.2-1.1.5-2.9 1.6-5l1 .3s8.7-3.4 12.1-4c3.5-.5 16.9 12.5 23.1 22.4 2.4 3.7 7.4 8.1 12.9 12.1z"></path><path fill="#b0e1ff" d="M722.5 977.7c-.7 1-1.6 1.9-2.5 2.7-20.1 7.8-53.5-15.1-55.4-16.4-1.9-1.3-30.2-8-33.4-12.2-2.9-3.8 1.5-6 2.6-12 7.1 1.4 11.9 1.9 18.2 5.2 7.9 4.2 49.2 36.3 70.5 32.7z"></path><path fill="#ffcea6" d="M647.5 680.8c17.5 24.3 53 106.8 50.9 111.8s-27.6 135.2-27.6 135.2-27.3 3.4-27.7-7.4c-.4-10.8 6.6-102.2 19.3-118.5-8.6-10.3-60.5-96.9-60.5-96.9l45.6-24.2z"></path><path fill="#2a94f4" d="M356.1 845.9c1.3 12.9 1.2 22.1 1.2 24.3 0 3-5.8 7.2-12.2 6.7-1.1-.1-2.2-.3-3.3-.7-17.7-13.8-23.7-59.4-24-62-.4-2.6-13.7-33.3-13-38.9.7-5.1 4.9-2.3 9.5-5.1.5-.3.9-.6 1.4-1 5-4.3 19.1-9.5 22.9-5.9l6.9 17.4.4 1.1s7.7 5.9 10.2 8.8c2.5 2.9 2.4 23.6-.1 35.7-.9 4.6-.6 12 .1 19.6z"></path><path fill="#0b4870" d="M356.1 845.9c-3.7-5-6.1-12.1-6.7-14.4-.7-2.7 1.8-11.8 1.4-14.8-.5-3-12.1-30.7-9.6-34.2.6-.9 2.2-1.4 4.2-1.7l.4 1.1s7.7 5.9 10.2 8.8c2.5 2.9 2.4 23.6-.1 35.7-.8 4.5-.5 11.9.2 19.5z"></path><path fill="#ffcea6" d="M531 670.8c-14.8 17.7-51.4 59.4-61.1 75.9-27.1 7.4-117.7 6.2-134.3 18.8-3.1 19.2 7.9 22.9 7.9 22.9l122.3 7c9.7-1.1 25.6-5.7 33.2-13.1 17-16.5 82-81.5 81.9-89.4-.1-11-49.9-22.1-49.9-22.1z"></path><path fill="#ffbe55" d="M536.9 623.2c-13.6 18.9-49.2 88.4-49.2 88.4l62.3 26.8 49.6-57.6-62.7-57.6z"></path><path fill="#ffbe55" d="M629.2 634.5c10.1 14.7 37.1 66.5 37.1 66.5l-63.9 37.3s-79-77-70.1-108.7c28.5-15.7 86.2-12.8 96.9 4.9z"></path><path fill="#ffcea6" d="M598.3 532c26.4.6 47.1-16.3 55.4-23.7 14 4.2 17.9 3.6 17.9 3.6s-28.3 45.4-57.6 45c-29.2-.4-15.7-24.9-15.7-24.9z"></path><path fill="#2a94f4" d="M634.2 638.1S615.1 621 591.5 628c-23.7 7-66.8 0-66.8 0l7.6-46.3 3.5-21.5 12.5-76.4-20.8 9s-20-37.8-20.4-39.1c50-45.5 80.4-36.5 90.8-34.3 0 0 .9 2.9 24.2 14.4 23.2 11.4 12.1 204.3 12.1 204.3z"></path><path fill="#ffcea6" d="M619.8 397.1v48.6L590.3 425l1.7-31.2 16.5-17.5z"></path><path fill="#0b4870" d="M578.7 339.8c-5.2 5-6.4 20-6.7 27.1-.1 2.5.4 4.9 1.5 7.2 4.7 9.5 17.8 33.9 19.5 35.6 3-4 8.6-8.3 8.6-8.3l2.4-17.8 1-29.1-26.3-14.7z"></path><path fill="#ffe3ca" d="M648.2 383.6c0 17.5 0 31.1-13 31.1-25.1 2-37.1-8-37.1-31.6 0-17.5-16.1-31.6 23.6-31.6 12.9 0 26.5 14.6 26.5 32.1z"></path><path fill="#0b4870" d="M605 358.5c11 3 37.2-.2 41.2-4.8 3-3.5-1.8-22.1-9.8-22.1s-19.3-5.1-19.3-5.1-.3 3.9 1.7 4.9c2 1-36.8-.9-41.8 11.2-.1-.2-6.1 13.9 28 15.9z"></path><path fill="#0b4870" d="M613.1 353.5c-2.4 11-4.8 27.1-18 25.1s-2.4-30.1-2.4-30.1l20.4 5z"></path><ellipse cx="595.5" cy="381.2" fill="#ffe3ca" rx="7.3" ry="11.1" transform="rotate(-17.152 595.582 381.199)"></ellipse><path fill="#ffcea6" d="M548.8 578.9s-3 2.5-10.1 11.1c-1.5-1.3-3-2.7-4.5-4-80.7-72.2-49.4-103.1-22.7-123.8 3.7 7.4 10.6 19.3 14.3 27.3-24.3 16.3-3.1 54.1 11.8 74.9 6.2 8.7 11.2 14.5 11.2 14.5z"></path><path fill="#ffcea6" d="M538.5 587c-.5.9-.9 1.9-1.3 2.8-1.4 3.4-.4 7.4 2.4 9.8l8.3 7.1 19.1-9.4.5-6.6s4 2.9 7.3 1.5c-4.9-5.3-9.1-14.3-16-16.6-3.7-1.3-7.1-2.1-11.8 1.7-10.1 6.1-8.5 9.7-8.5 9.7zM653 512.8c-1-3.5-3.1-9.6-3.1-9.6s8.1-22.2 7.7-25.1c4.8 2.3 4.6 9.1 4.6 9.1l6.9-9.3 16.8 22.8s-8.5 20.6-21 19.1c-12.5-1.4-11.9-7-11.9-7z"></path><path fill="#b0e1ff" d="M345.1 876.9c-1.1-.1-2.2-.3-3.3-.7-17.7-13.8-23.7-59.4-24-62-.4-2.6-13.7-33.3-13-38.9.7-5.1 4.9-2.3 9.5-5.1 3.6 7.5 6.2 12.3 8 20.3 2.2 10.1 7.2 68.8 22.8 86.4z"></path><circle cx="871.6" cy="222.5" r="81.3" fill="#ffbe55"></circle><path fill="#b0e1ff" d="M403.3 158.4c-55.6-34.2-118.9-55.7-183.8-62.5-3.6-.4-7.5-.6-10.6 1.2-6 3.7-5 13.2-.3 18.5 4.7 5.2 11.7 7.6 17.8 11.1 6.1 3.5 12 9.3 11.5 16.3-50.5-15.4-104.1-20.5-156.6-14.7-5.9.7-12.1 1.5-17.1 4.7s-8.6 9.5-6.9 15.2c2.7 9.1 14.9 10.2 24.3 9.6l321.7.6z"></path><path fill="#e9f9ff" d="M786.4 273.4c-27.6-30.7-65.9-51.5-106.7-57.7 3.9 9.7 10.1 18.5 18 25.4-88.7 1.1-173.1-53.3-261.2-42.8-5.8.7-12.2 2.1-15.3 7-5.4 8.6 3.8 19.2 13 23.5 9.2 4.3 20.6 7.8 23.9 17.4-18.7.9-37.3 1.8-56 2.7-3.2.2-6.7.4-9.1 2.5-4.6 4-2.1 12.2 3.2 15.3s11.8 2.6 17.9 2l372.3 4.7z"></path><path fill="#2a94f4" d="M245.8 362.3c-1.9-2.2-3.8-4.5-6-6.4-2.1-2-4.5-3.6-7-5l-1.9-1-2-.8c-.6-.3-1.3-.5-2-.7l-1-.3c-.3-.1-.7-.2-1-.3-.7-.2-1.4-.4-2.1-.5l-2.1-.4-2.1-.2c-.7-.1-1.4-.1-2.1-.1-.7-.1-1.4 0-2.1 0h-1.1c-.4 0-.7.1-1.1.1-1.4.1-2.8.2-4.2.4-2.8.4-5.6 1.1-8.3 1.9-2.7.8-5.4 1.8-8 3-1.3.6-2.6 1.2-3.9 1.9-1.2.7-2.5 1.4-3.6 2.1l-2.1 1.3-1-2.3c-.2-.5-.6-1.1-.9-1.7-.3-.6-.7-1.1-1-1.7-.7-1.1-1.5-2.2-2.4-3.2-1.7-2.1-3.7-3.9-5.8-5.4-2.1-1.5-4.5-2.8-7-3.6-2.5-.8-5.2-1.2-7.9-1.3-1.3-.1-2.7.1-4 .2-1.3.2-2.7.4-4 .7-2.7.5-5.3 1.5-7.9 2.5-5.2 2.1-10.1 4.9-15 8 4.3-3.8 8.9-7.2 14.1-9.9 2.6-1.3 5.3-2.5 8.1-3.3 1.4-.5 2.9-.7 4.3-1 1.5-.2 3-.4 4.5-.4 3-.1 6.1.2 9 1 2.9.8 5.7 2.2 8.2 3.8 2.5 1.7 4.8 3.7 6.8 6 1 1.1 1.9 2.4 2.7 3.6.4.6.8 1.3 1.2 1.9.4.7.7 1.3 1.1 2.1l-3.2-.9c1.4-.9 2.7-1.6 4-2.3 1.4-.7 2.7-1.3 4.1-1.9 2.8-1.2 5.6-2.2 8.6-3.1 2.9-.8 5.9-1.4 8.9-1.7 1.5-.2 3-.3 4.6-.3h2.2c.8 0 1.5.1 2.3.1 6.1.5 12.1 2.6 17.1 6 2.5 1.7 4.8 3.7 6.7 6 1 1.1 1.9 2.3 2.8 3.5.5.6.8 1.2 1.2 1.9l1.3 1.7zM920.6 400.7c-2.1-1.3-4.2-2.5-6.4-3.4-2.2-1-4.5-1.6-6.8-2.1l-1.7-.3-1.8-.1c-.6-.1-1.2 0-1.8 0h-.9c-.3 0-.6 0-.9.1-.6.1-1.2.1-1.7.2l-1.7.2-1.7.4c-.6.1-1.1.3-1.7.5-.6.1-1.1.3-1.7.5l-.8.3c-.3.1-.5.2-.8.3-1.1.4-2.1.9-3.2 1.4-2.1 1.1-4.1 2.3-6 3.7-1.9 1.4-3.8 2.8-5.5 4.4-.9.8-1.7 1.6-2.5 2.5-.8.8-1.6 1.7-2.3 2.6l-1.3 1.6-1.4-1.5-1.1-1.1c-.4-.4-.8-.7-1.3-1.1-.9-.7-1.8-1.3-2.7-1.9-1.9-1.2-3.9-2.1-6-2.7-2.1-.6-4.3-1-6.4-1-2.2 0-4.4.4-6.5 1-1.1.3-2.1.8-3.1 1.2-1 .5-2 1-3 1.6-2 1.1-3.8 2.6-5.6 4-3.5 3-6.6 6.5-9.6 10.1 2.3-4.1 5.1-7.9 8.4-11.4 1.7-1.7 3.5-3.3 5.5-4.7 1-.7 2-1.3 3.1-1.9 1.1-.5 2.2-1.1 3.4-1.5 2.3-.9 4.8-1.4 7.3-1.5 2.5-.1 5 .2 7.5.9 2.4.7 4.7 1.7 6.9 3 1.1.6 2.1 1.3 3.1 2.1.5.4 1 .8 1.4 1.2.5.4.9.8 1.4 1.4l-2.7.1c.8-1 1.7-1.9 2.6-2.8.9-.9 1.8-1.8 2.7-2.6 1.9-1.7 3.8-3.2 5.9-4.6 2.1-1.4 4.3-2.7 6.5-3.7 1.1-.5 2.3-1 3.5-1.4l.9-.3.9-.3c.6-.2 1.2-.4 1.8-.5 4.9-1.2 10.1-1.1 15 .2 2.4.7 4.7 1.6 6.8 2.9 1.1.6 2.1 1.3 3.1 2 .5.3 1 .7 1.4 1.1l1.5.9z"></path></svg>