<svg xmlns="http://www.w3.org/2000/svg" enable-background="new 0 0 32 32" viewBox="0 0 32 32"><path d="M29.31738,0.80952c-0.37012-0.28369-0.85107-0.37891-1.30176-0.2583L16.396,3.67133c-0.65527,0.17627-1.11084,0.77002-1.11084,1.44873v5.70117h-1.88672V7.98188c0-0.60205-0.35986-1.14551-0.91406-1.38086c-0.55518-0.23633-1.19629-0.1167-1.62793,0.30176l-8.30322,8.01807c-0.29248,0.28271-0.45801,0.67236-0.45801,1.0791c0,0.40674,0.16553,0.79639,0.45801,1.0791l8.30322,8.01807c0.28516,0.27539,0.66064,0.4209,1.04248,0.4209c0.19727,0,0.39648-0.03906,0.58545-0.11914c0.5542-0.23535,0.91406-0.77881,0.91406-1.38086v-2.83936h1.88672v5.70117c0,0.67871,0.45557,1.27246,1.11084,1.44873l11.61963,3.12012c0.12842,0.03418,0.25928,0.05127,0.38916,0.05127c0.32666,0,0.64795-0.10645,0.9126-0.30957c0.37061-0.28418,0.5874-0.72412,0.5874-1.19043v-28C29.90479,1.53364,29.68799,1.0937,29.31738,0.80952z M11.89844,18.17866c-0.82861,0-1.5,0.67139-1.5,1.5v0.80566l-4.64404-4.48437l4.64404-4.48438v0.80566c0,0.82861,0.67139,1.5,1.5,1.5h7.82178v4.35742H11.89844z M26.90479,28.04389l-8.61963-2.31445v-4.55078h2.93506c0.82861,0,1.5-0.67139,1.5-1.5v-7.35742c0-0.82861-0.67139-1.5-1.5-1.5h-2.93506V6.27045L26.90479,3.956V28.04389z" fill="#595bd4" class="color000000 svgShape"></path></svg>