<svg xmlns="http://www.w3.org/2000/svg" viewBox="0 0 64 64"><path fill="#fe9526" d="M15.983.002c-.61 0-1.218.078-1.823.173-1.649 3.185-2.03 3.023-5.305 2.312-.396.305-.802.589-1.165.952-.454.454-.828.95-1.191 1.455C7.544 8.135 7.08 8.266 4.415 10a11.753 11.753 0 0 0 0 3.463C7.438 15.026 7.17 15.467 6.5 18.57c.364.504.737 1.002 1.19 1.456.363.362.766.646 1.16.952 3.384-1.113 3.497-.472 5.306 2.312 1.035.161 2.081.166 3.122.05 1.728-3.37 2.272-3.011 5.727-2.281.434-.327.878-.638 1.273-1.033.304-.305.534-.65.799-.979-1.173-4.119-.931-3.71 2.5-5.924.055-.463.137-.925.137-1.39 0-.465-.082-.924-.137-1.385-3.665-2.028-3.336-2.08-2.5-5.932-.265-.328-.495-.672-.8-.977-.394-.395-.838-.708-1.272-1.035-3.637 1.14-3.803.714-5.733-2.28C16.842.077 16.415 0 15.983 0zm.018 4.5a7.208 7.208 0 0 1 7.208 7.207A7.208 7.208 0 0 1 16 18.917a7.208 7.208 0 0 1-7.208-7.208 7.208 7.208 0 0 1 7.208-7.207z" class="colorffab48 svgShape"></path><path style="text-indent:0;text-align:start;line-height:normal;text-transform:none;block-progression:tb;marker:none;-inkscape-font-specification:Sans" fill="#595bd4" d="M87.656 1288.847a.562.562 0 0 0-.406.531v3.813c0 .753.396 1.42 1 1.813v2.906c.122 1.732.789 2.943 1.719 3.687-.11.86-.478 1.356-1.094 1.813-.728.54-1.788.96-2.906 1.437-1.118.478-2.306 1.052-3.219 2.063-.913 1.01-1.5 2.426-1.5 4.468v.376l.313.125c2.862 1.242 4.308 1.878 5.03 2.187.362.154.524.24.626.281.05.02.07.015.125.031.014 0 .035.026.062.031h.032c.082.033.257.106.593.25.704.3 2.103.895 4.938 2.125l.219.094.218-.094a491.932 491.932 0 0 1 5.063-2.125c.353-.145.533-.246.625-.281h.031c.054-.01.103-.024.125-.031.043-.014.044-.011.094-.031.1-.041.302-.128.656-.281.708-.307 2.12-.929 4.938-2.157l.312-.124v-.375c0-1.994-.593-3.398-1.5-4.375-.907-.978-2.083-1.503-3.188-1.97-1.104-.466-2.157-.882-2.874-1.437-.705-.544-1.11-1.171-1.126-2.375.972-.803 1.646-1.932 1.688-3.312v-4.875c0-1.746-1.322-3.188-3-3.188h-6c-.343 0-.625-.056-.75-.125-.124-.069-.156-.08-.156-.344.003-.334-.364-.618-.688-.53z" color="#000" font-family="Sans" font-weight="400" overflow="visible" transform="translate(-68.014 -1154.454) scale(.90096)" class="color435270 svgShape"></path><path fill="#53d86a" d="M16 19.887c-.728 0-1.319.59-1.319 1.32 0 .383.168.719.448.966.021.025.334.25.192.685l-1.087 5.964 1.767.912 1.802-.901-1.068-5.975c-.141-.526.186-.685.186-.685.251-.245.399-.606.4-.967 0-.729-.591-1.32-1.32-1.32z" class="colore8e8f0 svgShape"></path></svg>