<svg xmlns="http://www.w3.org/2000/svg" enable-background="new 0 0 64 64" viewBox="0 0 64 64" id="More"><path d="M32.546 19.991h-1.091c-2.732 0-4.955-2.223-4.955-4.955v-2.072c0-2.732 2.223-4.955 4.955-4.955h1.091c2.731 0 4.954 2.223 4.954 4.955v2.072C37.5 17.768 35.277 19.991 32.546 19.991zM31.455 10.009c-1.63 0-2.955 1.326-2.955 2.955v2.072c0 1.629 1.325 2.955 2.955 2.955h1.091c1.629 0 2.954-1.326 2.954-2.955v-2.072c0-1.629-1.325-2.955-2.954-2.955H31.455zM32.543 37.991h-1.086c-2.733 0-4.957-2.224-4.957-4.957v-2.086c0-2.733 2.224-4.957 4.957-4.957h1.086c2.733 0 4.957 2.224 4.957 4.957v2.086C37.5 35.767 35.276 37.991 32.543 37.991zM31.457 27.991c-1.631 0-2.957 1.326-2.957 2.957v2.086c0 1.631 1.326 2.957 2.957 2.957h1.086c1.631 0 2.957-1.326 2.957-2.957v-2.086c0-1.631-1.326-2.957-2.957-2.957H31.457zM32.543 55.991h-1.086c-2.733 0-4.957-2.224-4.957-4.957v-2.086c0-2.733 2.224-4.957 4.957-4.957h1.086c2.733 0 4.957 2.224 4.957 4.957v2.086C37.5 53.767 35.276 55.991 32.543 55.991zM31.457 45.991c-1.631 0-2.957 1.326-2.957 2.957v2.086c0 1.631 1.326 2.957 2.957 2.957h1.086c1.631 0 2.957-1.326 2.957-2.957v-2.086c0-1.631-1.326-2.957-2.957-2.957H31.457z" fill="#595bd4" class="color000000 svgShape"></path></svg>