<svg xmlns="http://www.w3.org/2000/svg" viewBox="0 0 48 48"><g transform="translate(0 -1004.362)" fill="#d8a353" class="color000000 svgShape"><circle cx="657.054" cy="437.094" r="15.268" fill="#ad59d4" fill-rule="evenodd" transform="translate(-1008.842 341.28) scale(1.57193)" class="color9257a2 svgShape"></circle><path style="line-height:normal;-inkscape-font-specification:Sans;text-indent:0;text-align:start;text-decoration-line:none;text-transform:none;block-progression:tb;marker:none" fill="#8526fe" d="M26.906 47.805a24 24 0 0 0 1.862-.284 24 24 0 0 0 2.324-.593 24 24 0 0 0 2.254-.823 24 24 0 0 0 2.16-1.042 24 24 0 0 0 2.045-1.254 24 24 0 0 0 1.91-1.454 24 24 0 0 0 1.756-1.634 24 24 0 0 0 1.584-1.803 24 24 0 0 0 1.394-1.951 24 24 0 0 0 1.194-2.08 24 24 0 0 0 .98-2.19A24 24 0 0 0 47 30.8L28.055 11.855c-.07-.07-.151-.125-.227-.187-.057-.047-.11-.1-.17-.143-.101-.071-.21-.129-.32-.187-.063-.034-.122-.073-.188-.102-.095-.042-.196-.068-.296-.1-.089-.027-.173-.062-.264-.081l-.006-.002a2.867 2.867 0 0 0-.584-.06h-6c-.093 0-.166-.013-.248-.02l-.82-.82c-.008-.009-.021-.01-.03-.018a.591.591 0 0 0-.154-.096c-.027-.012-.05-.029-.078-.037a.488.488 0 0 0-.264-.01.562.562 0 0 0-.406.531v3.813c0 .171.026.336.064.496.012.05.03.096.045.145a2.121 2.121 0 0 0 .418.748c.03.034.055.07.086.103l.022.026.365.365V19.055c.025.352.077.677.145.986l.025.12c.068.285.154.55.256.8l.06.144c.105.236.222.457.354.659.025.039.053.075.08.113.144.206.298.398.467.566l.015.016.31.31c-.113.841-.478 1.334-1.087 1.786-.728.54-1.788.96-2.906 1.437-1.118.478-2.306 1.052-3.219 2.063-.913 1.01-1.5 2.426-1.5 4.468v.375l14.906 14.907z" color="#000" font-family="Sans" font-weight="400" transform="translate(0 1004.362)" class="color6c4676 svgShape"></path><path style="line-height:normal;-inkscape-font-specification:Sans;text-indent:0;text-align:start;text-decoration-line:none;text-transform:none;block-progression:tb;marker:none" fill="#5fe4d4" d="M10.406 1.992a.562.562 0 0 0-.406.531v3.813c0 .753.395 1.42 1 1.812v2.907c.121 1.732.789 2.943 1.719 3.687-.11.86-.478 1.356-1.094 1.813-.728.54-1.788.96-2.906 1.437-1.118.478-2.306 1.052-3.219 2.063-.913 1.01-1.5 2.426-1.5 4.468v.375l.313.125c2.862 1.243 4.308 1.88 5.03 2.188.362.154.524.24.626.281.05.02.07.015.125.031.013 0 .035.027.062.032h.031c.083.033.257.106.594.25.704.3 2.103.895 4.938 2.125l.219.093.218-.093a494.37 494.37 0 0 1 5.063-2.125c.353-.146.533-.247.625-.282h.031c.054-.01.103-.024.125-.03.043-.015.044-.012.094-.032.1-.041.302-.128.656-.281.708-.307 2.12-.929 4.938-2.157l.312-.125v-.375c0-1.993-.593-3.397-1.5-4.375-.907-.977-2.083-1.502-3.188-1.968-1.104-.467-2.157-.883-2.875-1.438-.704-.544-1.11-1.171-1.125-2.375.972-.803 1.646-1.932 1.688-3.312V6.18c0-1.746-1.322-3.188-3-3.188h-6c-.343 0-.626-.056-.75-.125s-.156-.08-.156-.344c.003-.335-.364-.618-.688-.53zm5.59 3.518c.11 0 .22.019.33.031.495.767.535.878 1.467.586.111.084.225.163.326.264.078.078.138.166.205.25-.214.987-.298 1 .64 1.52.015.117.036.236.036.355s-.021.236-.035.355c-.879.567-.941.463-.64 1.518-.068.084-.128.172-.206.25-.101.1-.215.181-.326.265-.885-.187-1.024-.279-1.467.584a3.01 3.01 0 0 1-.799-.013c-.463-.713-.492-.877-1.359-.592-.101-.078-.204-.151-.297-.244a2.97 2.97 0 0 1-.305-.373c.172-.795.241-.907-.533-1.307a3.008 3.008 0 0 1 0-.887c.683-.444.801-.478.533-1.308.094-.13.189-.257.305-.373.093-.093.197-.167.299-.245.839.183.937.224 1.36-.591.154-.024.31-.043.466-.043V5.51zm.004 2a1.001 1.001 0 0 0-1.002 1A1.001 1.001 0 0 0 16 9.512a1.001 1.001 0 0 0 1.002-1.002 1.001 1.001 0 0 0-1.002-1Zm0 9.068c.809 0 1.465.656 1.465 1.465-.001.4-.164.8-.444 1.072 0 0-.363.178-.207.762L18 26.507l-2 1-1.96-1.01 1.206-6.62c.157-.484-.191-.734-.215-.762a1.41 1.41 0 0 1-.496-1.072c0-.809.656-1.465 1.465-1.465z" color="#000" font-family="Sans" font-weight="400" overflow="visible" transform="translate(8 1012.362)" class="colorffffff svgShape"></path></g></svg>