<svg xmlns="http://www.w3.org/2000/svg" enable-background="new 0 0 64 64" viewBox="0 0 64 64" id="IncomeStatusfile"><path fill="#595bd4" d="M31.36,9.67c0-0.01,0-0.01,0-0.01V5.81c0-0.01,0-0.01,0-0.01V4.82c0-0.2-0.08-0.38-0.22-0.48
		c-0.08-0.06-0.17-0.09-0.26-0.09h-3.77c-0.5,0-0.93-0.37-1-0.87c-0.18-1.2-0.85-2.25-1.84-2.86C23.71,0.18,23.07,0,22.42,0
		c-1.85,0-3.4,1.42-3.69,3.38c-0.07,0.5-0.5,0.87-1,0.87h-3.77c-0.26,0-0.48,0.26-0.48,0.58v5.01h17.88V9.67z M22.42,5.52
		c-1.16,0-2.1-0.94-2.1-2.09c0-1.16,0.94-2.1,2.1-2.1c1.15,0,2.09,0.94,2.09,2.1C24.51,4.58,23.57,5.52,22.42,5.52z" class="color34495c svgShape"></path><path fill="#fe9526" d="M12.9 23.24c.74 0 1.36-.61 1.36-1.35 0-.75-.62-1.36-1.36-1.36-.75 0-1.36.61-1.36 1.36C11.54 22.63 12.15 23.24 12.9 23.24zM19.24 30.34c.75 0 1.36-.61 1.36-1.36 0-.36-.15-.68-.38-.93h-.01c0-.01-.01-.02-.01-.02-.25-.25-.59-.4-.96-.4-.74 0-1.35.61-1.35 1.35C17.89 29.73 18.5 30.34 19.24 30.34zM24.64 23.86c.24.24.58.39.95.39.74 0 1.35-.61 1.35-1.35 0-.75-.61-1.36-1.35-1.36-.75 0-1.36.61-1.36 1.36 0 .36.15.67.38.92C24.62 23.83 24.63 23.84 24.64 23.86zM31.93 29.33c.75 0 1.36-.61 1.36-1.36 0-.74-.61-1.35-1.36-1.35-.74 0-1.35.61-1.35 1.35C30.58 28.72 31.19 29.33 31.93 29.33z" class="colorf6b64e svgShape"></path><path fill="#595bd4" d="M11.45,10.67H4.55c-0.06,0-0.11,0.05-0.11,0.14v42.25c0,0.06,0.05,0.13,0.11,0.13h30.42
		c-0.17-0.15-0.33-0.29-0.5-0.45c-1.96-1.97-3.1-4.44-3.43-7H10.93c-0.55,0-1.01-0.46-1.01-1.01c0-0.56,0.46-1.01,1.01-1.01h0.95
		V28.72c0-0.57,0.45-1.01,1.01-1.01c0.55,0,1.01,0.45,1.01,1.01V43.7h4.31v-8.4c0-0.55,0.46-1.01,1.01-1.01
		c0.56,0,1.01,0.46,1.01,1.01v8.4h4.32v-12.8c0-0.55,0.45-1.01,1.01-1.01c0.55,0,1.01,0.46,1.01,1.01v12.8h4.31v-9.5
		c0-0.55,0.46-1.01,1.01-1.01c0.57,0,1.01,0.46,1.01,1.01v3.21c0.44-0.66,0.95-1.29,1.53-1.86c1.65-1.65,3.7-2.76,5.93-3.26V10.81
		c0-0.08-0.06-0.14-0.14-0.14h-6.88v0.18c0,0.57-0.45,1.01-1.01,1.01H12.46c-0.57,0-1.01-0.45-1.01-1.01V10.67z M12.9,18.5
		c1.86,0,3.39,1.52,3.39,3.39c0,0.63-0.19,1.21-0.49,1.72l2.06,2.3c0.42-0.19,0.89-0.3,1.38-0.3c0.59,0,1.13,0.17,1.62,0.43
		l1.71-1.64c-0.23-0.45-0.37-0.95-0.37-1.49c0-1.87,1.52-3.39,3.39-3.39c1.86,0,3.38,1.52,3.38,3.39c0,0.43-0.08,0.84-0.23,1.21
		l1.31,1.05c0.53-0.37,1.18-0.58,1.88-0.58c1.87,0,3.39,1.52,3.39,3.38c0,1.87-1.52,3.39-3.39,3.39c-1.86,0-3.38-1.52-3.38-3.39
		c0-0.43,0.08-0.84,0.23-1.21l-1.3-1.05c-0.54,0.37-1.19,0.58-1.89,0.58c-0.6,0-1.14-0.17-1.62-0.43l-1.71,1.63
		c0.23,0.46,0.37,0.96,0.37,1.5c0,1.87-1.52,3.39-3.39,3.39c-1.86,0-3.38-1.52-3.38-3.39c0-0.63,0.19-1.21,0.49-1.73l-2.06-2.29
		c-0.43,0.19-0.9,0.3-1.39,0.3c-1.86,0-3.39-1.52-3.39-3.38C9.51,20.01,11.04,18.5,12.9,18.5z" class="color34495c svgShape"></path><path fill="#595bd4" d="M38.07 55.21H4.55c-1.18 0-2.14-.97-2.14-2.16V10.81c0-1.19.96-2.17 2.14-2.17h6.89V6.82H1.23L1.19 57.38l42.41.04.01-1.15c-.18.01-.37.02-.54.02C41.32 56.29 39.63 55.91 38.07 55.21zM42.44 10.81v21.21c.21-.01.42-.03.64-.03.19 0 .38.02.56.03V6.84L33.39 6.82v1.82h6.88C41.46 8.64 42.44 9.61 42.44 10.81z" class="color34495c svgShape"></path><path fill="#fe9526" d="M62.16 60.18l-6.39-6.46c-.21-.21-.5-.33-.79-.33-.28 0-.54.1-.8.33l-1.59 1.58c-.31.31-.42.77-.28 1.14.03.09.12.32.28.45l6.36 6.45c.43.43 1 .67 1.6.67.6 0 1.16-.23 1.58-.66.41-.41.65-.97.66-1.59C62.81 61.17 62.58 60.61 62.16 60.18zM50.23 36.98c-1.91-1.91-4.46-2.97-7.16-2.97-2.71 0-5.25 1.06-7.16 2.97-3.95 3.94-3.95 10.37 0 14.31 1.9 1.91 4.45 2.96 7.16 2.96 2.7 0 5.23-1.05 7.15-2.95l.01-.01C54.18 47.35 54.18 40.93 50.23 36.98zM48.48 49.54c-1.49 1.49-3.45 2.24-5.4 2.24-1.96 0-3.92-.74-5.41-2.24-1.44-1.44-2.24-3.36-2.24-5.4 0-2.04.8-3.96 2.24-5.41 2.98-2.98 7.83-2.98 10.81 0C51.47 41.71 51.47 46.56 48.48 49.54zM52.32 51.36l-.29.34c-.21.25-.43.49-.67.73-.23.23-.46.44-.72.66l-.36.3 1.32 1.26 2.03-2.01L52.32 51.36z" class="colorf6b64e svgShape"></path></svg>